<svg version="1.2" xmlns="http://www.w3.org/2000/svg" viewBox="0 0 4167 3946" width="4167" height="3946">
	<style>
		.s0 { fill: #000000;stroke: #ffffff;stroke-miterlimit:100 } 
		.s1 { fill: #ffffff;stroke: #ffffff;stroke-miterlimit:100 } 
		.s2 { fill: #ffffff;stroke: #000000;stroke-linecap: round;stroke-linejoin: round;stroke-width: 50 } 
		.s3 { fill: none;stroke: #000000;stroke-linecap: round;stroke-linejoin: round;stroke-width: 60 } 
		.s4 { fill: #000000 } 
	</style>
	<g id="Group 3">
		<path id="Shape 2" fill-rule="evenodd" class="s0" d="m1924.17 3935.67c178.64-77.17 2362.83-1126.67 2362.83-1126.67l161-3073-4493 16 32 328c0 0 1058.81 3334.64 1145.39 3607.32 3.69 11.62 16.61 14.48 24.38 12.38 99.22-28.03 558.23-157.7 558.23-157.7 0 0 157.57 317.53 191.58 386.06 4.11 8.29 9.95 10.91 17.59 7.61z"/>
		<path id="Shape 1" fill-rule="evenodd" class="s1" d="m82.14 91.37c333.52 226.15 4010.86 2719.63 4010.86 2719.63l-2905 811-1122-3515-6-19-5-16c0 0 21.36 15.45 27.14 19.37z"/>
	</g>
	<path id="Shape 27" fill-rule="evenodd" class="s2" d="m1570 1053c0 0-709.08 161.38-583-231 49.97-109.89 144.82-252.28 909-420 166.54-43.52 444.73-54.03 501-47 79.59-52.64 238-152 238-152 0 0 64.47-39.86 84 48 22.4 96.8 28 230 28 230 0 0 529.82 397.13 791 772 41.66 29.61 79 24 79 24 0 0 230.61-3.94 263 37 14.86 29.59 15.38 134.39-237 385-23.79 51.73-67.79 47.34-42 142 26.8 94.66 55.29 457.2 30 577-243-170.22-283-185-283-185 0 0-3.51-122.33-130-103-126.49 19.33-560.1 136.12-695-59-83.75-147.02 57.63-286.22 238-353-143.09 45.45-154 39-154 39z"/>
	<path id="Shape 28" fill-rule="evenodd" class="s3" d="m2162 964c0 0-46.07 151.06 146 105-79.56 80.02 19.26 220.81 145 154"/>
	<path id="Ellipse 2" fill-rule="evenodd" class="s4" d="m1993.5 777c44.46 0 80.5 36.04 80.5 80.5 0 44.46-36.04 80.5-80.5 80.5-44.46 0-80.5-36.04-80.5-80.5 0-44.46 36.04-80.5 80.5-80.5z"/>
	<path id="Ellipse 2 copy" fill-rule="evenodd" class="s4" d="m2772.5 1383c44.46 0 80.5 36.04 80.5 80.5 0 44.46-36.04 80.5-80.5 80.5-44.46 0-80.5-36.04-80.5-80.5 0-44.46 36.04-80.5 80.5-80.5z"/>
</svg>