<svg version="1.2" xmlns="http://www.w3.org/2000/svg" viewBox="0 0 4167 3946" width="4167" height="3946">
	<style>
		.s0 { fill: #000000;stroke: #ffffff;stroke-miterlimit:100 } 
		.s1 { fill: #ffffff;stroke: #ffffff;stroke-miterlimit:100 } 
		.s2 { fill: #000000;stroke: #ffffff;stroke-linecap: round;stroke-linejoin: round;stroke-width: 0 } 
		.s3 { fill: #ffffff } 
		.s4 { fill: #000000;stroke: #ffffff;stroke-linecap: round;stroke-linejoin: round;stroke-width: 35 } 
		.s5 { fill: #000000;stroke: #ffffff;stroke-linecap: round;stroke-linejoin: round;stroke-width: 40 } 
		.s6 { fill: #ffffff;stroke: #000000;stroke-linecap: round;stroke-linejoin: round;stroke-width: 40 } 
		.s7 { fill: #000000;stroke: #ffffff;stroke-linecap: round;stroke-linejoin: round;stroke-width: 30 } 
		.s8 { fill: #000000 } 
	</style>
	<g id="Group 1">
		<path id="Shape 2" fill-rule="evenodd" class="s0" d="m1924.17 3935.67c178.64-77.17 2362.83-1126.67 2362.83-1126.67l161-3073-4493 16 32 328c0 0 1058.81 3334.64 1145.39 3607.32 3.69 11.62 16.61 14.48 24.38 12.38 99.22-28.03 558.23-157.7 558.23-157.7 0 0 157.57 317.53 191.58 386.06 4.11 8.29 9.95 10.91 17.59 7.61z"/>
		<path id="Shape 1" fill-rule="evenodd" class="s1" d="m82.14 91.37c333.52 226.15 4010.86 2719.63 4010.86 2719.63l-2905 811-1122-3515-6-19-5-16c0 0 21.36 15.45 27.14 19.37z"/>
		<g id="Group 2">
			<path id="Shape 9" fill-rule="evenodd" class="s2" d="m1448.42 2829.74c0 0-96.93 401.01 189.03 446.78 87.36 7.01 213.78 5.76 344.27-205.12 3.39-14.55 5.48-18.24 5.48-18.24z"/>
			<path id="Ellipse 1" fill-rule="evenodd" class="s3" d="m1686.48 3018.16c38.27 14.32 59.44 52.25 47.29 84.72-12.15 32.46-53.02 47.18-91.29 32.86-38.27-14.32-59.44-52.25-47.29-84.72 12.15-32.47 53.02-47.18 91.29-32.86z"/>
			<path id="Ellipse 1 copy" fill-rule="evenodd" class="s3" d="m1550.52 3086.86c15.92 5.24 25.24 20.43 20.8 33.95-4.44 13.51-20.95 20.23-36.88 14.99-15.93-5.23-25.24-20.43-20.8-33.94 4.44-13.51 20.95-20.23 36.88-15z"/>
			<path id="Ellipse 1 copy 2" fill-rule="evenodd" class="s3" d="m1627.48 3163.42c16.04 4.87 25.69 19.85 21.56 33.46-4.14 13.62-20.49 20.7-36.53 15.83-16.04-4.88-25.7-19.86-21.56-33.47 4.13-13.61 20.49-20.7 36.53-15.82z"/>
			<path id="Shape 11" fill-rule="evenodd" class="s3" d="m1583 2285"/>
			<path id="Shape 12" fill-rule="evenodd" class="s3" d="m1698 2171"/>
			<path id="Ellipse 1 copy 3" fill-rule="evenodd" class="s3" d="m1718.42 3166.83c13.57-8.13 30.16-5.39 37.06 6.12 6.9 11.52 1.5 27.44-12.07 35.57-13.57 8.14-30.16 5.4-37.06-6.12-6.9-11.51-1.5-27.44 12.07-35.57z"/>
			<path id="Shape 6" fill-rule="evenodd" class="s4" d="m2579 1073c0 0 171.63-90.28 247 93 29.05 122.27 10.35 158.89-130 250 4.2-93-25.87-200.18-117-343z"/>
			<path id="Shape 7" fill-rule="evenodd" class="s5" d="m2894 2080c0.09-0.2 116.33-125.47 234-98 80.57 17.5 162.48 92.66 59 372-34.78 94.75-150.89 345.12-401 397 74.06-85.51 202.68-253.08 190-437-4.16-138.67-82-234-82-234z"/>
			<path id="Shape 4" fill-rule="evenodd" class="s6" d="m1223 2036c0 0-86.76 453.93 238.69 799.79 197.17 150.12 496.95 348.18 979.98 140.73 176.66-89.38 563.31-292.02 539.32-705.45-30.76-179-93.86-200.54-124.02-261.57-30.16-61.03-207.73-383.19-123.44-578.8-1.84-139.43-155.09-603.01-689.01-605.36-205.07 7.59-316.42 103.28-340.85 190.88-15.45-6.83-115.42-5.69-147.75 73.37-39.8 33.06-58.68 136.08-18.94 188.41-16.7 49.31-260.03 364.56-313.98 758z"/>
			<path id="Shape 3" fill-rule="evenodd" class="s7" d="m1311.93 646.52c0 0-218.57 45.25-136.41 473.56 38.65 209.91 93.8 472.66 93.8 472.66 0 0-18.97 272.83-33.07 296.99 0.85 37.37 12.75 45.27 12.75 45.27 0 0 131.02-302.24 479.19-491.13 137.04-56.85 451.43-186.09 817.41 60.97 114.23 96.02 119.25 97.25 119.25 97.25 0 0-0.32 262.4 143.15 332.91 184.25-72.31 94.45-417.19-367.56-591.93-249.91-88.69-337.78-96.47-448.36-102.77-129.43-7.08-350.79 27.05-414.4-247.57-48.02-204.15-126.6-369.03-265.75-346.21z"/>
			<path id="Shape 10" fill-rule="evenodd" class="s8" d="m1341 1758c0 0-73.37 96.34-98 269-18.18-12.2-28-68-28-68 0 0 35.83-179.24 70-365 14.71 27.37 56 164 56 164z"/>
			<path id="Shape 5" fill-rule="evenodd" class="s5" d="m1880.48 1032.7c0 0 8.73-35.69 62.5-25.96 53.67 3.19 162.5 5.74 149.49-102.51-6.5-43.87-91.17-192.75-297.06-133.75-62.26 25.64-134.08 104.06-102.38 240.65 6.12 38.36 34.21 103.99 114.96 92.7 18.27-3.22 49.59-8.45 72.49-71.13z"/>
			<path id="Shape 8" fill-rule="evenodd" class="s2" d="m1445.63 2816.22"/>
		</g>
		<path id="Shape 13" fill-rule="evenodd" class="s8" d="m2038.82 2521.13c0 0 72.85-115.6 218.4-97.2 99.82 20.63 179.25 94.83 104.4 247.2-26.13 45.15-98.8 136.08-255.6 66-131.4-80.57-93.8-179.99-67.2-216z"/>
	</g>
</svg>