<svg version="1.2" xmlns="http://www.w3.org/2000/svg" viewBox="0 0 4167 3946" width="4167" height="3946">
	<defs>
		<clipPath clipPathUnits="userSpaceOnUse" id="cp1">
			<path d="m2739 2135c-171.53 420.8-73.51 600.78 108 653 179.92 15.63 406.31-143.23 603-318 218.06-193.75 300.94-432.37 343-577 140.88-721.58-285.42-847.65-466-953-125.15-54.38-494-193-494-193-272.02-95.33-1379.9 431.13-1001 743-161.29 188.22-227.12 403.32-154 590 209.71 400.18 570 12 570 12l144-167c0 0 120.98 153.7 347 210z"/>
		</clipPath>
	</defs>
	<style>
		.s0 { fill: #000000;stroke: #ffffff;stroke-miterlimit:100 } 
		.s1 { fill: #ffffff;stroke: #ffffff;stroke-miterlimit:100 } 
		.s2 { fill: #000000;stroke: #ffffff;stroke-linecap: round;stroke-linejoin: round;stroke-width: 40 } 
		.s3 { fill: #ffffff;stroke: #000000;stroke-linecap: round;stroke-linejoin: round;stroke-width: 40 } 
		.s4 { fill: #000000 } 
		.s5 { fill: none;stroke: #000000;paint-order:stroke fill markers;stroke-linecap: round;stroke-linejoin: round;stroke-width: 80 } 
	</style>
	<g id="Group 3">
		<path id="Shape 2" fill-rule="evenodd" class="s0" d="m1924.17 3935.67c178.64-77.17 2362.83-1126.67 2362.83-1126.67l161-3073-4493 16 32 328c0 0 1058.81 3334.64 1145.39 3607.32 3.69 11.62 16.61 14.48 24.38 12.38 99.22-28.03 558.23-157.7 558.23-157.7 0 0 157.57 317.53 191.58 386.06 4.11 8.29 9.95 10.91 17.59 7.61z"/>
		<path id="Shape 1" fill-rule="evenodd" class="s1" d="m82.14 91.37c333.52 226.15 4010.86 2719.63 4010.86 2719.63l-2905 811-1122-3515-6-19-5-16c0 0 21.36 15.45 27.14 19.37z"/>
	</g>
	<path id="Shape 25" fill-rule="evenodd" class="s2" d="m3546.09 1275.6c-2.78-41.34 303.02-187.04 357.1 75.79 9.31 133.47-89.36 218.2-232.69 159.58-143.33-58.61-124.41-235.37-124.41-235.37z"/>
	<g id="Group 4">
		<g clip-path="url(#cp1)">
			<path id="Shape 21" fill-rule="evenodd" class="s3" d="m2739 2135c-171.53 420.8-73.51 600.78 108 653 179.92 15.63 406.31-143.23 603-318 218.06-193.75 300.94-432.37 343-577 140.88-721.58-285.42-847.65-466-953-125.15-54.38-494-193-494-193-272.02-95.33-1379.9 431.13-1001 743-161.29 188.22-227.12 403.32-154 590 209.71 400.18 570 12 570 12l144-167c0 0 120.98 153.7 347 210z"/>
			<path id="Shape 24" fill-rule="evenodd" class="s4" d="m2594 1996c-29.3 96.77 118.23 50.11 510 229 246.47 94.29 411.02-94.47 569 21-30.55 167.39-142 402-142 402 0 0-469.43 265.76-515 267-45.57 1.24-714.44-163.58-709-177 5.44-13.42 14.48-302.44 33-331 18.52-28.56 105-199 105-199z"/>
			<path id="Shape 23" fill-rule="evenodd" class="s4" d="m2814 740c0 0 539.03 523.42-170 1369-295.4 205.33-861 379-861 379 0 0-390.96-454.24-390-467 0.96-12.76 128-527 128-527 0 0 176.28-196.91 191-198 14.72-1.09 187-13 187-13l548-301z"/>
		</g>
		<path id="Shape 19" fill-rule="evenodd" class="s2" d="m1382.07 420.13c0 0-130.21-144.07 109.2-280.35 239.41-136.27 259.18 62.66 259.35 68.25 0.16 5.6 11.38 120.97 11.38 120.97 0 0-214.56 149.4-229.78 153.08-15.23 3.69-106.05 8.4-106.05 8.4z"/>
		<path id="Shape 14" fill-rule="evenodd" class="s3" d="m1619 327c0 0-128.53 109.93-216 131-81.39 19.43-352.75 161.24-211 486 100.68 196.64 546.48 646.69 1153 574 117.15-22.61 617.73-173.33 441-771-88.6-225.58-504.58-723.85-1031-501-90.75 33.95-91.15 40.99-136 81z"/>
		<path id="Shape 20" fill-rule="evenodd" class="s2" d="m2753 783c331.6-89.89 201.4-315.59 36-429-163.08-97.91-261 119-261 119 0 0 0.99 124.18 101 229 66.27 69.46 97.1 93.92 124 81z"/>
		<path id="Shape 15 copy" fill-rule="evenodd" class="s4" d="m2159.89 920.7c22.22 48.13 106.09 124.52 222.23 14 46.6-53.68 49.64-112.55 49.18-140.73 0 0-14.11-283.2-249.3-267.15-162.48 24.09-97.41 215.41-48.43 263.29 29.13 38.72 25.06 71.57 22.32 89.76-1.74 11.5-2.18 27.43 4 40.83z"/>
		<path id="Shape 15 copy 2" fill-rule="evenodd" class="s4" d="m1727.01 845.38c-35.94 38.98-139.22 85.89-215.77-54.98-27.85-65.41-12.64-122.37-3.54-149.04 0 0 100.48-265.15 319.35-177.59 147.2 72.88 26.47 234.93-34.85 265.44-39.62 27.89-45.84 60.4-48.83 78.55-1.88 11.47-6.35 26.77-16.36 37.62z"/>
		<path id="Shape 16" fill-rule="evenodd" class="s4" d="m1838 851c0 0-76.59-76.12 13-108 74.97-15.04 174.85 2.9 191 35 17.62 34.38 5.63 73.84-72 103-80.56 12.29-103.8-5.24-132-30z"/>
		<path id="Shape 17" fill-rule="evenodd" class="s5" d="m1776 983c0 0 66.75 52.34 103-27-4.09 45.98 92.66 112.51 158 40"/>
		<path id="Shape 22" fill-rule="evenodd" class="s3" d="m2810 738"/>
	</g>
</svg>